<svg width="24" height="19" viewBox="0 0 24 19" fill="none" xmlns="http://www.w3.org/2000/svg">
<path d="M11.5305 8.28709L19.4092 0.408417C19.9538 -0.136139 20.8343 -0.136139 21.3731 0.408417L22.6823 1.71767C23.2269 2.26222 23.2269 3.14278 22.6823 3.68154L17.1035 9.27192L22.6881 14.8565C23.2327 15.4011 23.2327 16.2816 22.6881 16.8204L21.3789 18.1354C20.8343 18.68 19.9538 18.68 19.415 18.1354L11.5363 10.2568C10.986 9.7122 10.986 8.83165 11.5305 8.28709ZM0.407695 10.2568L8.28637 18.1354C8.83092 18.68 9.71148 18.68 10.2502 18.1354L11.5595 16.8262C12.104 16.2816 12.104 15.4011 11.5595 14.8623L5.9807 9.27192L11.5653 3.68734C12.1098 3.14278 12.1098 2.26222 11.5653 1.72346L10.256 0.408417C9.71148 -0.136139 8.83092 -0.136139 8.29216 0.408417L0.413488 8.28709C-0.13686 8.83165 -0.13686 9.7122 0.407695 10.2568Z" fill="#F6E9E9"/>
</svg>
