<svg width="15" height="17" viewBox="0 0 15 17" fill="none" xmlns="http://www.w3.org/2000/svg">
<g clip-path="url(#clip0_103_2)">
<path d="M13.9291 6.90625H9.10771V2.125C9.10771 1.5383 8.62791 1.0625 8.03628 1.0625H6.96485C6.37322 1.0625 5.89342 1.5383 5.89342 2.125V6.90625H1.07199C0.480364 6.90625 0.000564575 7.38205 0.000564575 7.96875V9.03125C0.000564575 9.61795 0.480364 10.0938 1.07199 10.0938H5.89342V14.875C5.89342 15.4617 6.37322 15.9375 6.96485 15.9375H8.03628C8.62791 15.9375 9.10771 15.4617 9.10771 14.875V10.0938H13.9291C14.5208 10.0938 15.0006 9.61795 15.0006 9.03125V7.96875C15.0006 7.38205 14.5208 6.90625 13.9291 6.90625Z" fill="#0F0000"/>
</g>
<defs>
<clipPath id="clip0_103_2">
<rect width="15" height="17" fill="white"/>
</clipPath>
</defs>
</svg>
