<svg width="26" height="30" viewBox="0 0 26 30" fill="none" xmlns="http://www.w3.org/2000/svg">
<g clip-path="url(#clip0_2449_2)">
<path d="M1.85402 26.8801C1.85402 27.6176 2.14699 28.3249 2.66847 28.8464C3.18995 29.3679 3.89724 29.6608 4.63473 29.6608H21.319C22.0565 29.6608 22.7638 29.3679 23.2852 28.8464C23.8067 28.3249 24.0997 27.6176 24.0997 26.8801V7.41517H1.85402V26.8801ZM17.6114 12.0497C17.6114 11.8039 17.709 11.5681 17.8828 11.3943C18.0567 11.2204 18.2924 11.1228 18.5383 11.1228C18.7841 11.1228 19.0199 11.2204 19.1937 11.3943C19.3675 11.5681 19.4652 11.8039 19.4652 12.0497V25.0263C19.4652 25.2722 19.3675 25.5079 19.1937 25.6817C19.0199 25.8556 18.7841 25.9532 18.5383 25.9532C18.2924 25.9532 18.0567 25.8556 17.8828 25.6817C17.709 25.5079 17.6114 25.2722 17.6114 25.0263V12.0497ZM12.0499 12.0497C12.0499 11.8039 12.1476 11.5681 12.3214 11.3943C12.4953 11.2204 12.731 11.1228 12.9769 11.1228C13.2227 11.1228 13.4584 11.2204 13.6323 11.3943C13.8061 11.5681 13.9038 11.8039 13.9038 12.0497V25.0263C13.9038 25.2722 13.8061 25.5079 13.6323 25.6817C13.4584 25.8556 13.2227 25.9532 12.9769 25.9532C12.731 25.9532 12.4953 25.8556 12.3214 25.6817C12.1476 25.5079 12.0499 25.2722 12.0499 25.0263V12.0497ZM6.48853 12.0497C6.48853 11.8039 6.58619 11.5681 6.76002 11.3943C6.93384 11.2204 7.16961 11.1228 7.41544 11.1228C7.66127 11.1228 7.89703 11.2204 8.07085 11.3943C8.24468 11.5681 8.34234 11.8039 8.34234 12.0497V25.0263C8.34234 25.2722 8.24468 25.5079 8.07085 25.6817C7.89703 25.8556 7.66127 25.9532 7.41544 25.9532C7.16961 25.9532 6.93384 25.8556 6.76002 25.6817C6.58619 25.5079 6.48853 25.2722 6.48853 25.0263V12.0497ZM25.0266 1.85375H18.0748L17.5303 0.770437C17.4149 0.538835 17.2372 0.344017 17.0172 0.207899C16.7971 0.0717808 16.5435 -0.000236449 16.2847 -5.08782e-05H9.66318C9.40502 -0.00104327 9.15181 0.0707054 8.93255 0.206975C8.71329 0.343244 8.53685 0.538523 8.42344 0.770437L7.87889 1.85375H0.927116C0.681286 1.85375 0.445525 1.95141 0.271697 2.12524C0.0978692 2.29907 0.000213623 2.53483 0.000213623 2.78066L0.000213623 4.63446C0.000213623 4.88029 0.0978692 5.11605 0.271697 5.28988C0.445525 5.46371 0.681286 5.56137 0.927116 5.56137H25.0266C25.2724 5.56137 25.5082 5.46371 25.682 5.28988C25.8558 5.11605 25.9535 4.88029 25.9535 4.63446V2.78066C25.9535 2.53483 25.8558 2.29907 25.682 2.12524C25.5082 1.95141 25.2724 1.85375 25.0266 1.85375Z" fill="#F6E9E9"/>
</g>
<defs>
<clipPath id="clip0_2449_2">
<rect width="25.9533" height="29.6609" fill="white"/>
</clipPath>
</defs>
</svg>
