<svg width="30" height="30" viewBox="0 0 30 30" fill="none" xmlns="http://www.w3.org/2000/svg">
<path d="M28.8427 8.22771L26.172 10.8983C25.8998 11.1706 25.4595 11.1706 25.1872 10.8983L18.7568 4.46796C18.4845 4.19568 18.4845 3.7554 18.7568 3.48313L21.4275 0.812488C22.5108 -0.270829 24.2719 -0.270829 25.361 0.812488L28.8427 4.29417C29.9318 5.37748 29.9318 7.1386 28.8427 8.22771ZM16.4627 5.77721L1.24995 20.99L0.0217999 28.0287C-0.146201 28.9787 0.682218 29.8014 1.63229 29.6392L8.67096 28.4052L23.8838 13.1924C24.156 12.9202 24.156 12.4799 23.8838 12.2076L17.4534 5.77721C17.1753 5.50493 16.735 5.50493 16.4627 5.77721ZM7.18792 19.6865C6.86929 19.3679 6.86929 18.8581 7.18792 18.5395L16.1094 9.61807C16.428 9.29944 16.9378 9.29944 17.2564 9.61807C17.575 9.93669 17.575 10.4465 17.2564 10.7651L8.33496 19.6865C8.01634 20.0052 7.50654 20.0052 7.18792 19.6865ZM5.09659 24.5586H7.8773V26.6615L4.14072 27.3161L2.33906 25.5144L2.99368 21.7779H5.09659V24.5586Z" fill="#F6E9E9"/>
</svg>
